<svg width="31" height="25" viewBox="0 0 31 25" fill="none" xmlns="http://www.w3.org/2000/svg">
<path d="M10.52 12L10.504 5.28L7.208 10.816H6.04L2.76 5.424V12H0.328V0.799999H2.472L6.664 7.76L10.792 0.799999H12.92L12.952 12H10.52ZM21.0333 12.192C19.8706 12.192 18.8199 11.9413 17.8813 11.44C16.9533 10.9387 16.2226 10.2507 15.6893 9.376C15.1666 8.49067 14.9053 7.49867 14.9053 6.4C14.9053 5.30133 15.1666 4.31467 15.6893 3.44C16.2226 2.55467 16.9533 1.86133 17.8813 1.36C18.8199 0.858666 19.8706 0.608 21.0333 0.608C22.1959 0.608 23.2413 0.858666 24.1693 1.36C25.0973 1.86133 25.8279 2.55467 26.3613 3.44C26.8946 4.31467 27.1613 5.30133 27.1613 6.4C27.1613 7.49867 26.8946 8.49067 26.3613 9.376C25.8279 10.2507 25.0973 10.9387 24.1693 11.44C23.2413 11.9413 22.1959 12.192 21.0333 12.192ZM21.0333 9.984C21.6946 9.984 22.2919 9.83467 22.8253 9.536C23.3586 9.22667 23.7746 8.8 24.0733 8.256C24.3826 7.712 24.5373 7.09333 24.5373 6.4C24.5373 5.70667 24.3826 5.088 24.0733 4.544C23.7746 4 23.3586 3.57867 22.8253 3.28C22.2919 2.97067 21.6946 2.816 21.0333 2.816C20.3719 2.816 19.7746 2.97067 19.2413 3.28C18.7079 3.57867 18.2866 4 17.9773 4.544C17.6786 5.088 17.5293 5.70667 17.5293 6.4C17.5293 7.09333 17.6786 7.712 17.9773 8.256C18.2866 8.8 18.7079 9.22667 19.2413 9.536C19.7746 9.83467 20.3719 9.984 21.0333 9.984ZM8.552 19.176C9.192 19.3787 9.69333 19.72 10.056 20.2C10.4187 20.6693 10.6 21.2507 10.6 21.944C10.6 22.9253 10.216 23.6827 9.448 24.216C8.69067 24.7387 7.58133 25 6.12 25H0.328V13.8H5.8C7.16533 13.8 8.21067 14.0613 8.936 14.584C9.672 15.1067 10.04 15.816 10.04 16.712C10.04 17.256 9.90667 17.7413 9.64 18.168C9.384 18.5947 9.02133 18.9307 8.552 19.176ZM2.904 15.752V18.392H5.48C6.12 18.392 6.60533 18.28 6.936 18.056C7.26667 17.832 7.432 17.5013 7.432 17.064C7.432 16.6267 7.26667 16.3013 6.936 16.088C6.60533 15.864 6.12 15.752 5.48 15.752H2.904ZM5.928 23.048C6.61067 23.048 7.12267 22.936 7.464 22.712C7.816 22.488 7.992 22.1413 7.992 21.672C7.992 20.744 7.304 20.28 5.928 20.28H2.904V23.048H5.928ZM27.703 13.8H30.295V25H27.703V13.8Z" fill="#E3E3E3"/>
<path d="M12.5624 13.8H15.1544V25H12.5624V13.8ZM20.1324 15.912H16.5484V13.8H26.3084V15.912H22.7244V25H20.1324V15.912Z" fill="#689A94"/>
</svg>
