<svg width="120" height="120" viewBox="0 0 120 120" xmlns="http://www.w3.org/2000/svg">
  <!-- Simple QR code pattern that works on all devices -->
  <rect width="120" height="120" fill="white"/>
  
  <!-- Top-left corner -->
  <rect x="0" y="0" width="35" height="35" fill="black"/>
  <rect x="5" y="5" width="25" height="25" fill="white"/>
  <rect x="10" y="10" width="15" height="15" fill="black"/>
  
  <!-- Top-right corner -->
  <rect x="85" y="0" width="35" height="35" fill="black"/>
  <rect x="90" y="5" width="25" height="25" fill="white"/>
  <rect x="95" y="10" width="15" height="15" fill="black"/>
  
  <!-- Bottom-left corner -->
  <rect x="0" y="85" width="35" height="35" fill="black"/>
  <rect x="5" y="90" width="25" height="25" fill="white"/>
  <rect x="10" y="95" width="15" height="15" fill="black"/>
  
  <!-- Timing patterns -->
  <rect x="40" y="5" width="5" height="5" fill="black"/>
  <rect x="50" y="5" width="5" height="5" fill="black"/>
  <rect x="60" y="5" width="5" height="5" fill="black"/>
  <rect x="70" y="5" width="5" height="5" fill="black"/>
  <rect x="80" y="5" width="5" height="5" fill="black"/>
  
  <rect x="5" y="40" width="5" height="5" fill="black"/>
  <rect x="5" y="50" width="5" height="5" fill="black"/>
  <rect x="5" y="60" width="5" height="5" fill="black"/>
  <rect x="5" y="70" width="5" height="5" fill="black"/>
  <rect x="5" y="80" width="5" height="5" fill="black"/>
  
  <!-- Central pattern -->
  <rect x="52" y="52" width="16" height="16" fill="black"/>
  <rect x="56" y="56" width="8" height="8" fill="white"/>
  <rect x="58" y="58" width="4" height="4" fill="black"/>
  
  <!-- Data dots pattern -->
  <rect x="40" y="40" width="4" height="4" fill="black"/>
  <rect x="48" y="40" width="4" height="4" fill="black"/>
  <rect x="72" y="40" width="4" height="4" fill="black"/>
  <rect x="80" y="40" width="4" height="4" fill="black"/>
  
  <rect x="40" y="48" width="4" height="4" fill="black"/>
  <rect x="72" y="48" width="4" height="4" fill="black"/>
  
  <rect x="40" y="72" width="4" height="4" fill="black"/>
  <rect x="48" y="72" width="4" height="4" fill="black"/>
  <rect x="72" y="72" width="4" height="4" fill="black"/>
  <rect x="80" y="72" width="4" height="4" fill="black"/>
  
  <rect x="40" y="80" width="4" height="4" fill="black"/>
  <rect x="72" y="80" width="4" height="4" fill="black"/>
  
  <!-- Additional data pattern -->
  <rect x="88" y="88" width="4" height="4" fill="black"/>
  <rect x="96" y="88" width="4" height="4" fill="black"/>
  <rect x="104" y="88" width="4" height="4" fill="black"/>
  <rect x="112" y="88" width="4" height="4" fill="black"/>
  
  <rect x="88" y="96" width="4" height="4" fill="black"/>
  <rect x="104" y="96" width="4" height="4" fill="black"/>
  
  <rect x="88" y="104" width="4" height="4" fill="black"/>
  <rect x="96" y="104" width="4" height="4" fill="black"/>
  <rect x="104" y="104" width="4" height="4" fill="black"/>
  <rect x="112" y="104" width="4" height="4" fill="black"/>
  
  <rect x="88" y="112" width="4" height="4" fill="black"/>
  <rect x="104" y="112" width="4" height="4" fill="black"/>
  
  <!-- URL text for clarity -->
  <text x="60" y="115" text-anchor="middle" font-family="Arial, sans-serif" font-size="6" fill="black">intelssoft.com</text>
</svg> 