<svg width="768" height="174" viewBox="0 0 768 174" fill="none" xmlns="http://www.w3.org/2000/svg">
<g clip-path="url(#clip0_11234_2850)">
<mask id="mask0_11234_2850" style="mask-type:luminance" maskUnits="userSpaceOnUse" x="-103" y="-434" width="1024" height="1024">
<path d="M921 -434H-103V590H921V-434Z" fill="white"/>
</mask>
<g mask="url(#mask0_11234_2850)">
<path d="M280.475 166V142.9H283.709L291.86 159.037L300.044 142.9H303.311V166H300.539V147.85L292.916 162.766H290.837L283.247 147.916V166H280.475ZM308.321 166V149.368H311.093V166H308.321ZM309.707 145.837C309.157 145.837 308.695 145.661 308.321 145.309C307.969 144.935 307.793 144.473 307.793 143.923C307.793 143.373 307.969 142.933 308.321 142.603C308.695 142.251 309.157 142.075 309.707 142.075C310.235 142.075 310.686 142.251 311.06 142.603C311.434 142.933 311.621 143.373 311.621 143.923C311.621 144.473 311.434 144.935 311.06 145.309C310.686 145.661 310.235 145.837 309.707 145.837ZM322.552 173.656C321.056 173.656 319.725 173.458 318.559 173.062C317.415 172.688 316.524 172.105 315.886 171.313C315.248 170.521 314.929 169.542 314.929 168.376C314.929 167.87 315.028 167.331 315.226 166.759C315.446 166.187 315.809 165.626 316.315 165.076C316.843 164.526 317.58 164.031 318.526 163.591L320.44 164.713C319.274 165.197 318.515 165.747 318.163 166.363C317.811 167.001 317.635 167.584 317.635 168.112C317.635 168.838 317.844 169.443 318.262 169.927C318.68 170.411 319.263 170.774 320.011 171.016C320.759 171.258 321.606 171.379 322.552 171.379C323.498 171.379 324.312 171.247 324.994 170.983C325.676 170.719 326.204 170.345 326.578 169.861C326.952 169.377 327.139 168.805 327.139 168.145C327.139 167.375 326.853 166.726 326.281 166.198C325.709 165.692 324.62 165.395 323.014 165.307C321.716 165.219 320.627 165.098 319.747 164.944C318.867 164.79 318.141 164.614 317.569 164.416C316.997 164.196 316.513 163.954 316.117 163.69C315.743 163.426 315.402 163.151 315.094 162.865V162.106L318.295 158.938L320.704 159.796L317.404 162.766L317.833 161.611C318.075 161.787 318.306 161.952 318.526 162.106C318.746 162.26 319.043 162.392 319.417 162.502C319.791 162.612 320.308 162.711 320.968 162.799C321.65 162.887 322.541 162.975 323.641 163.063C325.159 163.173 326.369 163.437 327.271 163.855C328.195 164.273 328.855 164.834 329.251 165.538C329.669 166.242 329.878 167.078 329.878 168.046C329.878 168.992 329.614 169.883 329.086 170.719C328.58 171.577 327.788 172.281 326.71 172.831C325.632 173.381 324.246 173.656 322.552 173.656ZM322.519 160.786C321.133 160.786 319.945 160.522 318.955 159.994C317.987 159.466 317.25 158.762 316.744 157.882C316.238 156.98 315.985 155.979 315.985 154.879C315.985 153.779 316.238 152.789 316.744 151.909C317.272 151.029 318.02 150.325 318.988 149.797C319.956 149.247 321.133 148.972 322.519 148.972C323.905 148.972 325.082 149.247 326.05 149.797C327.018 150.325 327.755 151.029 328.261 151.909C328.767 152.789 329.02 153.779 329.02 154.879C329.02 155.979 328.767 156.98 328.261 157.882C327.755 158.762 327.018 159.466 326.05 159.994C325.082 160.522 323.905 160.786 322.519 160.786ZM322.519 158.509C323.707 158.509 324.642 158.201 325.324 157.585C326.006 156.969 326.347 156.067 326.347 154.879C326.347 153.713 326.006 152.822 325.324 152.206C324.642 151.59 323.707 151.282 322.519 151.282C321.353 151.282 320.407 151.59 319.681 152.206C318.977 152.822 318.625 153.713 318.625 154.879C318.625 156.067 318.977 156.969 319.681 157.585C320.385 158.201 321.331 158.509 322.519 158.509ZM325.225 151.711L324.4 149.368H331.198V151.447L325.225 151.711ZM334.386 166V149.368H336.894L337.092 152.536C337.466 151.788 337.939 151.15 338.511 150.622C339.105 150.094 339.809 149.687 340.623 149.401C341.459 149.115 342.405 148.972 343.461 148.972V151.876H342.438C341.734 151.876 341.063 151.975 340.425 152.173C339.787 152.349 339.215 152.646 338.709 153.064C338.225 153.482 337.84 154.054 337.554 154.78C337.29 155.484 337.158 156.364 337.158 157.42V166H334.386ZM352.012 166.396C350.67 166.396 349.548 166.165 348.646 165.703C347.744 165.219 347.073 164.592 346.633 163.822C346.193 163.03 345.973 162.172 345.973 161.248C345.973 160.126 346.259 159.18 346.831 158.41C347.425 157.618 348.25 157.024 349.306 156.628C350.384 156.21 351.649 156.001 353.101 156.001H357.49C357.49 154.967 357.325 154.109 356.995 153.427C356.687 152.723 356.225 152.195 355.609 151.843C355.015 151.491 354.267 151.315 353.365 151.315C352.309 151.315 351.396 151.579 350.626 152.107C349.856 152.635 349.383 153.416 349.207 154.45H346.369C346.501 153.262 346.897 152.272 347.557 151.48C348.239 150.666 349.097 150.05 350.131 149.632C351.165 149.192 352.243 148.972 353.365 148.972C354.905 148.972 356.181 149.258 357.193 149.83C358.227 150.38 358.997 151.161 359.503 152.173C360.009 153.163 360.262 154.34 360.262 155.704V166H357.787L357.622 163.063C357.402 163.525 357.116 163.965 356.764 164.383C356.434 164.779 356.038 165.131 355.576 165.439C355.114 165.725 354.586 165.956 353.992 166.132C353.42 166.308 352.76 166.396 352.012 166.396ZM352.441 164.053C353.211 164.053 353.904 163.899 354.52 163.591C355.158 163.261 355.697 162.821 356.137 162.271C356.577 161.699 356.907 161.072 357.127 160.39C357.369 159.708 357.49 158.993 357.49 158.245V158.146H353.332C352.254 158.146 351.385 158.278 350.725 158.542C350.065 158.784 349.592 159.136 349.306 159.598C349.02 160.038 348.877 160.544 348.877 161.116C348.877 161.71 349.009 162.227 349.273 162.667C349.559 163.107 349.966 163.448 350.494 163.69C351.044 163.932 351.693 164.053 352.441 164.053ZM370.633 166C369.643 166 368.785 165.846 368.059 165.538C367.333 165.23 366.772 164.713 366.376 163.987C366.002 163.239 365.815 162.238 365.815 160.984V151.711H362.911V149.368H365.815L366.178 145.342H368.587V149.368H373.405V151.711H368.587V160.984C368.587 162.018 368.796 162.722 369.214 163.096C369.632 163.448 370.369 163.624 371.425 163.624H373.207V166H370.633ZM377.286 166V149.368H380.058V166H377.286ZM378.672 145.837C378.122 145.837 377.66 145.661 377.286 145.309C376.934 144.935 376.758 144.473 376.758 143.923C376.758 143.373 376.934 142.933 377.286 142.603C377.66 142.251 378.122 142.075 378.672 142.075C379.2 142.075 379.651 142.251 380.025 142.603C380.399 142.933 380.586 143.373 380.586 143.923C380.586 144.473 380.399 144.935 380.025 145.309C379.651 145.661 379.2 145.837 378.672 145.837ZM392.375 166.396C390.835 166.396 389.449 166.044 388.217 165.34C386.985 164.614 386.017 163.602 385.313 162.304C384.609 160.984 384.257 159.455 384.257 157.717C384.257 155.935 384.609 154.395 385.313 153.097C386.039 151.777 387.018 150.765 388.25 150.061C389.504 149.335 390.901 148.972 392.441 148.972C394.025 148.972 395.422 149.335 396.632 150.061C397.864 150.765 398.832 151.777 399.536 153.097C400.262 154.395 400.625 155.924 400.625 157.684C400.625 159.444 400.262 160.984 399.536 162.304C398.81 163.602 397.831 164.614 396.599 165.34C395.367 166.044 393.959 166.396 392.375 166.396ZM392.408 164.02C393.354 164.02 394.234 163.789 395.048 163.327C395.862 162.843 396.522 162.128 397.028 161.182C397.534 160.236 397.787 159.07 397.787 157.684C397.787 156.276 397.534 155.11 397.028 154.186C396.544 153.24 395.895 152.536 395.081 152.074C394.289 151.59 393.409 151.348 392.441 151.348C391.517 151.348 390.637 151.59 389.801 152.074C388.987 152.536 388.327 153.24 387.821 154.186C387.337 155.11 387.095 156.276 387.095 157.684C387.095 159.07 387.337 160.236 387.821 161.182C388.327 162.128 388.976 162.843 389.768 163.327C390.582 163.789 391.462 164.02 392.408 164.02ZM404.511 166V149.368H407.019L407.151 152.272C407.679 151.238 408.427 150.435 409.395 149.863C410.385 149.269 411.507 148.972 412.761 148.972C414.059 148.972 415.181 149.236 416.127 149.764C417.073 150.27 417.81 151.051 418.338 152.107C418.866 153.141 419.13 154.461 419.13 156.067V166H416.358V156.364C416.358 154.692 415.984 153.438 415.236 152.602C414.51 151.766 413.476 151.348 412.134 151.348C411.21 151.348 410.385 151.579 409.659 152.041C408.933 152.481 408.35 153.13 407.91 153.988C407.492 154.824 407.283 155.869 407.283 157.123V166H404.511ZM424.45 166.165C423.9 166.165 423.438 165.989 423.064 165.637C422.712 165.263 422.536 164.812 422.536 164.284C422.536 163.756 422.712 163.316 423.064 162.964C423.438 162.59 423.9 162.403 424.45 162.403C425 162.403 425.451 162.59 425.803 162.964C426.155 163.316 426.331 163.756 426.331 164.284C426.331 164.812 426.155 165.263 425.803 165.637C425.451 165.989 425 166.165 424.45 166.165ZM424.45 152.734C423.9 152.734 423.438 152.558 423.064 152.206C422.712 151.832 422.536 151.381 422.536 150.853C422.536 150.325 422.712 149.885 423.064 149.533C423.438 149.159 423.9 148.972 424.45 148.972C425 148.972 425.451 149.159 425.803 149.533C426.155 149.885 426.331 150.325 426.331 150.853C426.331 151.381 426.155 151.832 425.803 152.206C425.451 152.558 425 152.734 424.45 152.734ZM444.309 166.396C442.967 166.396 441.845 166.165 440.943 165.703C440.041 165.219 439.37 164.592 438.93 163.822C438.49 163.03 438.27 162.172 438.27 161.248C438.27 160.126 438.556 159.18 439.128 158.41C439.722 157.618 440.547 157.024 441.603 156.628C442.681 156.21 443.946 156.001 445.398 156.001H449.787C449.787 154.967 449.622 154.109 449.292 153.427C448.984 152.723 448.522 152.195 447.906 151.843C447.312 151.491 446.564 151.315 445.662 151.315C444.606 151.315 443.693 151.579 442.923 152.107C442.153 152.635 441.68 153.416 441.504 154.45H438.666C438.798 153.262 439.194 152.272 439.854 151.48C440.536 150.666 441.394 150.05 442.428 149.632C443.462 149.192 444.54 148.972 445.662 148.972C447.202 148.972 448.478 149.258 449.49 149.83C450.524 150.38 451.294 151.161 451.8 152.173C452.306 153.163 452.559 154.34 452.559 155.704V166H450.084L449.919 163.063C449.699 163.525 449.413 163.965 449.061 164.383C448.731 164.779 448.335 165.131 447.873 165.439C447.411 165.725 446.883 165.956 446.289 166.132C445.717 166.308 445.057 166.396 444.309 166.396ZM444.738 164.053C445.508 164.053 446.201 163.899 446.817 163.591C447.455 163.261 447.994 162.821 448.434 162.271C448.874 161.699 449.204 161.072 449.424 160.39C449.666 159.708 449.787 158.993 449.787 158.245V158.146H445.629C444.551 158.146 443.682 158.278 443.022 158.542C442.362 158.784 441.889 159.136 441.603 159.598C441.317 160.038 441.174 160.544 441.174 161.116C441.174 161.71 441.306 162.227 441.57 162.667C441.856 163.107 442.263 163.448 442.791 163.69C443.341 163.932 443.99 164.053 444.738 164.053ZM463.117 166.396C461.731 166.396 460.521 166.165 459.487 165.703C458.475 165.241 457.661 164.603 457.045 163.789C456.451 162.953 456.088 161.974 455.956 160.852H458.794C458.904 161.424 459.135 161.952 459.487 162.436C459.839 162.92 460.312 163.316 460.906 163.624C461.522 163.91 462.27 164.053 463.15 164.053C463.92 164.053 464.558 163.943 465.064 163.723C465.57 163.481 465.944 163.162 466.186 162.766C466.45 162.37 466.582 161.941 466.582 161.479C466.582 160.797 466.417 160.28 466.087 159.928C465.779 159.576 465.317 159.301 464.701 159.103C464.085 158.883 463.337 158.696 462.457 158.542C461.731 158.41 461.016 158.234 460.312 158.014C459.608 157.794 458.981 157.508 458.431 157.156C457.881 156.782 457.441 156.331 457.111 155.803C456.803 155.275 456.649 154.626 456.649 153.856C456.649 152.91 456.891 152.074 457.375 151.348C457.859 150.6 458.552 150.017 459.454 149.599C460.378 149.181 461.445 148.972 462.655 148.972C464.437 148.972 465.878 149.401 466.978 150.259C468.078 151.117 468.727 152.36 468.925 153.988H466.186C466.076 153.152 465.713 152.503 465.097 152.041C464.503 151.557 463.678 151.315 462.622 151.315C461.588 151.315 460.796 151.524 460.246 151.942C459.718 152.36 459.454 152.91 459.454 153.592C459.454 154.032 459.597 154.428 459.883 154.78C460.191 155.11 460.631 155.396 461.203 155.638C461.797 155.88 462.523 156.078 463.381 156.232C464.481 156.43 465.482 156.694 466.384 157.024C467.286 157.354 468.012 157.849 468.562 158.509C469.134 159.147 469.42 160.06 469.42 161.248C469.42 162.282 469.156 163.184 468.628 163.954C468.122 164.724 467.396 165.329 466.45 165.769C465.504 166.187 464.393 166.396 463.117 166.396ZM482.177 166V149.368H484.685L484.817 152.272C485.345 151.238 486.093 150.435 487.061 149.863C488.051 149.269 489.173 148.972 490.427 148.972C491.725 148.972 492.847 149.236 493.793 149.764C494.739 150.27 495.476 151.051 496.004 152.107C496.532 153.141 496.796 154.461 496.796 156.067V166H494.024V156.364C494.024 154.692 493.65 153.438 492.902 152.602C492.176 151.766 491.142 151.348 489.8 151.348C488.876 151.348 488.051 151.579 487.325 152.041C486.599 152.481 486.016 153.13 485.576 153.988C485.158 154.824 484.949 155.869 484.949 157.123V166H482.177ZM506.538 166.396C505.196 166.396 504.074 166.165 503.172 165.703C502.27 165.219 501.599 164.592 501.159 163.822C500.719 163.03 500.499 162.172 500.499 161.248C500.499 160.126 500.785 159.18 501.357 158.41C501.951 157.618 502.776 157.024 503.832 156.628C504.91 156.21 506.175 156.001 507.627 156.001H512.016C512.016 154.967 511.851 154.109 511.521 153.427C511.213 152.723 510.751 152.195 510.135 151.843C509.541 151.491 508.793 151.315 507.891 151.315C506.835 151.315 505.922 151.579 505.152 152.107C504.382 152.635 503.909 153.416 503.733 154.45H500.895C501.027 153.262 501.423 152.272 502.083 151.48C502.765 150.666 503.623 150.05 504.657 149.632C505.691 149.192 506.769 148.972 507.891 148.972C509.431 148.972 510.707 149.258 511.719 149.83C512.753 150.38 513.523 151.161 514.029 152.173C514.535 153.163 514.788 154.34 514.788 155.704V166H512.313L512.148 163.063C511.928 163.525 511.642 163.965 511.29 164.383C510.96 164.779 510.564 165.131 510.102 165.439C509.64 165.725 509.112 165.956 508.518 166.132C507.946 166.308 507.286 166.396 506.538 166.396ZM506.967 164.053C507.737 164.053 508.43 163.899 509.046 163.591C509.684 163.261 510.223 162.821 510.663 162.271C511.103 161.699 511.433 161.072 511.653 160.39C511.895 159.708 512.016 158.993 512.016 158.245V158.146H507.858C506.78 158.146 505.911 158.278 505.251 158.542C504.591 158.784 504.118 159.136 503.832 159.598C503.546 160.038 503.403 160.544 503.403 161.116C503.403 161.71 503.535 162.227 503.799 162.667C504.085 163.107 504.492 163.448 505.02 163.69C505.57 163.932 506.219 164.053 506.967 164.053ZM525.159 166C524.169 166 523.311 165.846 522.585 165.538C521.859 165.23 521.298 164.713 520.902 163.987C520.528 163.239 520.341 162.238 520.341 160.984V151.711H517.437V149.368H520.341L520.704 145.342H523.113V149.368H527.931V151.711H523.113V160.984C523.113 162.018 523.322 162.722 523.74 163.096C524.158 163.448 524.895 163.624 525.951 163.624H527.733V166H525.159ZM537.587 166.396C536.311 166.396 535.189 166.143 534.221 165.637C533.275 165.131 532.538 164.35 532.01 163.294C531.504 162.238 531.251 160.918 531.251 159.334V149.368H534.023V159.037C534.023 160.687 534.386 161.93 535.112 162.766C535.838 163.602 536.861 164.02 538.181 164.02C539.105 164.02 539.941 163.8 540.689 163.36C541.437 162.898 542.02 162.249 542.438 161.413C542.878 160.555 543.098 159.51 543.098 158.278V149.368H545.87V166H543.362L543.197 163.096C542.691 164.13 541.943 164.944 540.953 165.538C539.963 166.11 538.841 166.396 537.587 166.396ZM550.465 166V149.368H552.973L553.171 152.536C553.545 151.788 554.018 151.15 554.59 150.622C555.184 150.094 555.888 149.687 556.702 149.401C557.538 149.115 558.484 148.972 559.54 148.972V151.876H558.517C557.813 151.876 557.142 151.975 556.504 152.173C555.866 152.349 555.294 152.646 554.788 153.064C554.304 153.482 553.919 154.054 553.633 154.78C553.369 155.484 553.237 156.364 553.237 157.42V166H550.465ZM568.091 166.396C566.749 166.396 565.627 166.165 564.725 165.703C563.823 165.219 563.152 164.592 562.712 163.822C562.272 163.03 562.052 162.172 562.052 161.248C562.052 160.126 562.338 159.18 562.91 158.41C563.504 157.618 564.329 157.024 565.385 156.628C566.463 156.21 567.728 156.001 569.18 156.001H573.569C573.569 154.967 573.404 154.109 573.074 153.427C572.766 152.723 572.304 152.195 571.688 151.843C571.094 151.491 570.346 151.315 569.444 151.315C568.388 151.315 567.475 151.579 566.705 152.107C565.935 152.635 565.462 153.416 565.286 154.45H562.448C562.58 153.262 562.976 152.272 563.636 151.48C564.318 150.666 565.176 150.05 566.21 149.632C567.244 149.192 568.322 148.972 569.444 148.972C570.984 148.972 572.26 149.258 573.272 149.83C574.306 150.38 575.076 151.161 575.582 152.173C576.088 153.163 576.341 154.34 576.341 155.704V166H573.866L573.701 163.063C573.481 163.525 573.195 163.965 572.843 164.383C572.513 164.779 572.117 165.131 571.655 165.439C571.193 165.725 570.665 165.956 570.071 166.132C569.499 166.308 568.839 166.396 568.091 166.396ZM568.52 164.053C569.29 164.053 569.983 163.899 570.599 163.591C571.237 163.261 571.776 162.821 572.216 162.271C572.656 161.699 572.986 161.072 573.206 160.39C573.448 159.708 573.569 158.993 573.569 158.245V158.146H569.411C568.333 158.146 567.464 158.278 566.804 158.542C566.144 158.784 565.671 159.136 565.385 159.598C565.099 160.038 564.956 160.544 564.956 161.116C564.956 161.71 565.088 162.227 565.352 162.667C565.638 163.107 566.045 163.448 566.573 163.69C567.123 163.932 567.772 164.053 568.52 164.053ZM580.629 166V142.24H583.401V166H580.629ZM602.155 166.396C600.813 166.396 599.691 166.165 598.789 165.703C597.887 165.219 597.216 164.592 596.776 163.822C596.336 163.03 596.116 162.172 596.116 161.248C596.116 160.126 596.402 159.18 596.974 158.41C597.568 157.618 598.393 157.024 599.449 156.628C600.527 156.21 601.792 156.001 603.244 156.001H607.633C607.633 154.967 607.468 154.109 607.138 153.427C606.83 152.723 606.368 152.195 605.752 151.843C605.158 151.491 604.41 151.315 603.508 151.315C602.452 151.315 601.539 151.579 600.769 152.107C599.999 152.635 599.526 153.416 599.35 154.45H596.512C596.644 153.262 597.04 152.272 597.7 151.48C598.382 150.666 599.24 150.05 600.274 149.632C601.308 149.192 602.386 148.972 603.508 148.972C605.048 148.972 606.324 149.258 607.336 149.83C608.37 150.38 609.14 151.161 609.646 152.173C610.152 153.163 610.405 154.34 610.405 155.704V166H607.93L607.765 163.063C607.545 163.525 607.259 163.965 606.907 164.383C606.577 164.779 606.181 165.131 605.719 165.439C605.257 165.725 604.729 165.956 604.135 166.132C603.563 166.308 602.903 166.396 602.155 166.396ZM602.584 164.053C603.354 164.053 604.047 163.899 604.663 163.591C605.301 163.261 605.84 162.821 606.28 162.271C606.72 161.699 607.05 161.072 607.27 160.39C607.512 159.708 607.633 158.993 607.633 158.245V158.146H603.475C602.397 158.146 601.528 158.278 600.868 158.542C600.208 158.784 599.735 159.136 599.449 159.598C599.163 160.038 599.02 160.544 599.02 161.116C599.02 161.71 599.152 162.227 599.416 162.667C599.702 163.107 600.109 163.448 600.637 163.69C601.187 163.932 601.836 164.053 602.584 164.053ZM620.963 166.396C619.577 166.396 618.367 166.165 617.333 165.703C616.321 165.241 615.507 164.603 614.891 163.789C614.297 162.953 613.934 161.974 613.802 160.852H616.64C616.75 161.424 616.981 161.952 617.333 162.436C617.685 162.92 618.158 163.316 618.752 163.624C619.368 163.91 620.116 164.053 620.996 164.053C621.766 164.053 622.404 163.943 622.91 163.723C623.416 163.481 623.79 163.162 624.032 162.766C624.296 162.37 624.428 161.941 624.428 161.479C624.428 160.797 624.263 160.28 623.933 159.928C623.625 159.576 623.163 159.301 622.547 159.103C621.931 158.883 621.183 158.696 620.303 158.542C619.577 158.41 618.862 158.234 618.158 158.014C617.454 157.794 616.827 157.508 616.277 157.156C615.727 156.782 615.287 156.331 614.957 155.803C614.649 155.275 614.495 154.626 614.495 153.856C614.495 152.91 614.737 152.074 615.221 151.348C615.705 150.6 616.398 150.017 617.3 149.599C618.224 149.181 619.291 148.972 620.501 148.972C622.283 148.972 623.724 149.401 624.824 150.259C625.924 151.117 626.573 152.36 626.771 153.988H624.032C623.922 153.152 623.559 152.503 622.943 152.041C622.349 151.557 621.524 151.315 620.468 151.315C619.434 151.315 618.642 151.524 618.092 151.942C617.564 152.36 617.3 152.91 617.3 153.592C617.3 154.032 617.443 154.428 617.729 154.78C618.037 155.11 618.477 155.396 619.049 155.638C619.643 155.88 620.369 156.078 621.227 156.232C622.327 156.43 623.328 156.694 624.23 157.024C625.132 157.354 625.858 157.849 626.408 158.509C626.98 159.147 627.266 160.06 627.266 161.248C627.266 162.282 627.002 163.184 626.474 163.954C625.968 164.724 625.242 165.329 624.296 165.769C623.35 166.187 622.239 166.396 620.963 166.396ZM646.557 166C645.567 166 644.709 165.846 643.983 165.538C643.257 165.23 642.696 164.713 642.3 163.987C641.926 163.239 641.739 162.238 641.739 160.984V151.711H638.835V149.368H641.739L642.102 145.342H644.511V149.368H649.329V151.711H644.511V160.984C644.511 162.018 644.72 162.722 645.138 163.096C645.556 163.448 646.293 163.624 647.349 163.624H649.131V166H646.557ZM652.946 166V142.24H655.718V152.173C656.268 151.183 657.038 150.402 658.028 149.83C659.04 149.258 660.14 148.972 661.328 148.972C662.604 148.972 663.715 149.236 664.661 149.764C665.607 150.27 666.333 151.051 666.839 152.107C667.345 153.163 667.598 154.494 667.598 156.1V166H664.859V156.397C664.859 154.725 664.507 153.471 663.803 152.635C663.099 151.777 662.076 151.348 660.734 151.348C659.788 151.348 658.93 151.579 658.16 152.041C657.412 152.503 656.818 153.163 656.378 154.021C655.938 154.879 655.718 155.935 655.718 157.189V166H652.946ZM679.22 166.396C677.658 166.396 676.272 166.033 675.062 165.307C673.874 164.581 672.939 163.569 672.257 162.271C671.575 160.951 671.234 159.422 671.234 157.684C671.234 155.924 671.564 154.395 672.224 153.097C672.906 151.799 673.852 150.787 675.062 150.061C676.294 149.335 677.702 148.972 679.286 148.972C680.914 148.972 682.289 149.335 683.411 150.061C684.555 150.787 685.424 151.744 686.018 152.932C686.634 154.098 686.942 155.385 686.942 156.793C686.942 157.013 686.942 157.244 686.942 157.486C686.942 157.728 686.931 158.003 686.909 158.311H673.313V156.166H684.236C684.17 154.648 683.664 153.46 682.718 152.602C681.794 151.744 680.628 151.315 679.22 151.315C678.274 151.315 677.394 151.535 676.58 151.975C675.788 152.393 675.15 153.02 674.666 153.856C674.182 154.67 673.94 155.693 673.94 156.925V157.849C673.94 159.213 674.182 160.357 674.666 161.281C675.172 162.205 675.821 162.898 676.613 163.36C677.427 163.822 678.296 164.053 679.22 164.053C680.386 164.053 681.343 163.8 682.091 163.294C682.861 162.766 683.411 162.062 683.741 161.182H686.48C686.216 162.172 685.754 163.063 685.094 163.855C684.434 164.647 683.609 165.274 682.619 165.736C681.651 166.176 680.518 166.396 679.22 166.396ZM702.815 166L697.931 149.368H700.703L704.498 163.393H704.003L708.128 149.368H711.263L715.454 163.36L714.926 163.393L718.688 149.368H721.493L716.642 166H713.804L709.448 151.348H710.009L705.653 166H702.815ZM724.882 166V149.368H727.654V166H724.882ZM726.268 145.837C725.718 145.837 725.256 145.661 724.882 145.309C724.53 144.935 724.354 144.473 724.354 143.923C724.354 143.373 724.53 142.933 724.882 142.603C725.256 142.251 725.718 142.075 726.268 142.075C726.796 142.075 727.247 142.251 727.621 142.603C727.995 142.933 728.182 143.373 728.182 143.923C728.182 144.473 727.995 144.935 727.621 145.309C727.247 145.661 726.796 145.837 726.268 145.837ZM732.545 166V149.368H735.053L735.185 152.272C735.713 151.238 736.461 150.435 737.429 149.863C738.419 149.269 739.541 148.972 740.795 148.972C742.093 148.972 743.215 149.236 744.161 149.764C745.107 150.27 745.844 151.051 746.372 152.107C746.9 153.141 747.164 154.461 747.164 156.067V166H744.392V156.364C744.392 154.692 744.018 153.438 743.27 152.602C742.544 151.766 741.51 151.348 740.168 151.348C739.244 151.348 738.419 151.579 737.693 152.041C736.967 152.481 736.384 153.13 735.944 153.988C735.526 154.824 735.317 155.869 735.317 157.123V166H732.545ZM758.821 166.396C757.215 166.396 755.807 166.022 754.597 165.274C753.387 164.504 752.452 163.459 751.792 162.139C751.132 160.819 750.802 159.323 750.802 157.651C750.802 155.979 751.132 154.494 751.792 153.196C752.452 151.876 753.387 150.842 754.597 150.094C755.829 149.346 757.248 148.972 758.854 148.972C760.218 148.972 761.406 149.247 762.418 149.797C763.452 150.347 764.244 151.117 764.794 152.107V142.24H767.566V166H765.058L764.827 163.261C764.475 163.811 764.024 164.328 763.474 164.812C762.924 165.274 762.264 165.659 761.494 165.967C760.724 166.253 759.833 166.396 758.821 166.396ZM759.151 163.987C760.251 163.987 761.219 163.723 762.055 163.195C762.891 162.667 763.54 161.941 764.002 161.017C764.464 160.071 764.695 158.96 764.695 157.684C764.695 156.43 764.464 155.33 764.002 154.384C763.54 153.438 762.891 152.701 762.055 152.173C761.219 151.645 760.251 151.381 759.151 151.381C758.073 151.381 757.116 151.645 756.28 152.173C755.444 152.701 754.795 153.438 754.333 154.384C753.871 155.33 753.64 156.43 753.64 157.684C753.64 158.96 753.871 160.071 754.333 161.017C754.795 161.941 755.444 162.667 756.28 163.195C757.116 163.723 758.073 163.987 759.151 163.987Z" fill="white"/>
<path d="M281.039 88.9999V79.3399L315.689 26.1049H281.249V15.4999H330.284V25.1599L295.424 78.3949H330.494V88.9999H281.039ZM367.389 90.2599C362.139 90.2599 357.519 89.1399 353.529 86.8999C349.539 84.5899 346.424 81.3699 344.184 77.2399C341.944 73.1099 340.824 68.3499 340.824 62.9599C340.824 57.3599 341.909 52.4599 344.079 48.2599C346.319 44.0599 349.434 40.7699 353.424 38.3899C357.484 36.0099 362.174 34.8199 367.494 34.8199C372.674 34.8199 377.189 35.9749 381.039 38.2849C384.889 40.5949 387.864 43.7099 389.964 47.6299C392.064 51.4799 393.114 55.8199 393.114 60.6499C393.114 61.3499 393.114 62.1199 393.114 62.9599C393.114 63.7999 393.044 64.6749 392.904 65.5849H349.854V57.4999H380.409C380.269 53.6499 378.974 50.6399 376.524 48.4699C374.074 46.2299 371.029 45.1099 367.389 45.1099C364.799 45.1099 362.419 45.7049 360.249 46.8949C358.079 48.0849 356.364 49.8699 355.104 52.2499C353.844 54.5599 353.214 57.4999 353.214 61.0699V64.1149C353.214 67.4049 353.809 70.2399 354.999 72.6199C356.259 74.9999 357.939 76.8199 360.039 78.0799C362.209 79.2699 364.624 79.8649 367.284 79.8649C370.224 79.8649 372.639 79.2349 374.529 77.9749C376.489 76.7149 377.924 75.0349 378.834 72.9349H391.644C390.664 76.2249 389.054 79.1999 386.814 81.8599C384.574 84.4499 381.809 86.5149 378.519 88.0549C375.229 89.5249 371.519 90.2599 367.389 90.2599ZM404.748 112.1V36.0799H415.983L417.348 43.7449C418.468 42.2049 419.798 40.7699 421.338 39.4399C422.948 38.0399 424.873 36.9199 427.113 36.0799C429.423 35.2399 432.048 34.8199 434.988 34.8199C439.958 34.8199 444.333 36.0449 448.113 38.4949C451.963 40.9449 454.973 44.2699 457.143 48.4699C459.313 52.5999 460.398 57.3249 460.398 62.6449C460.398 67.9649 459.278 72.7249 457.038 76.9249C454.868 81.0549 451.858 84.3099 448.008 86.6899C444.228 89.0699 439.888 90.2599 434.988 90.2599C430.998 90.2599 427.498 89.5249 424.488 88.0549C421.548 86.5149 419.168 84.3449 417.348 81.5449V112.1H404.748ZM432.363 79.3399C435.303 79.3399 437.928 78.6399 440.238 77.2399C442.548 75.8399 444.333 73.8799 445.593 71.3599C446.923 68.8399 447.588 65.9349 447.588 62.6449C447.588 59.2849 446.923 56.3449 445.593 53.8249C444.333 51.3049 442.548 49.3449 440.238 47.9449C437.928 46.5449 435.303 45.8449 432.363 45.8449C429.353 45.8449 426.693 46.5449 424.383 47.9449C422.143 49.3449 420.358 51.3049 419.028 53.8249C417.768 56.3449 417.138 59.2499 417.138 62.5399C417.138 65.8999 417.768 68.8399 419.028 71.3599C420.358 73.8099 422.143 75.7699 424.383 77.2399C426.693 78.6399 429.353 79.3399 432.363 79.3399ZM472.629 88.9999V13.3999H485.229V44.2699C486.979 41.3999 489.359 39.1249 492.369 37.4449C495.379 35.6949 498.774 34.8199 502.554 34.8199C506.894 34.8199 510.569 35.7299 513.579 37.5499C516.589 39.2999 518.864 41.9249 520.404 45.4249C522.014 48.8549 522.819 53.1599 522.819 58.3399V88.9999H510.324V59.4949C510.324 54.9449 509.344 51.4799 507.384 49.0999C505.494 46.7199 502.589 45.5299 498.669 45.5299C496.149 45.5299 493.874 46.1599 491.844 47.4199C489.814 48.6099 488.204 50.3599 487.014 52.6699C485.824 54.9099 485.229 57.6749 485.229 60.9649V88.9999H472.629ZM540.865 112.1L553.78 83.1199H550.63L529.525 36.0799H543.28L559.03 71.9899L573.94 36.0799H587.275L554.2 112.1H540.865ZM596.393 88.9999V36.0799H607.628L608.783 45.9499C610.043 43.6399 611.618 41.6799 613.508 40.0699C615.398 38.3899 617.603 37.0949 620.123 36.1849C622.713 35.2749 625.548 34.8199 628.628 34.8199V48.1549H624.218C622.118 48.1549 620.123 48.4349 618.233 48.9949C616.343 49.4849 614.698 50.3249 613.298 51.5149C611.968 52.6349 610.918 54.2099 610.148 56.2399C609.378 58.1999 608.993 60.6849 608.993 63.6949V88.9999H596.393ZM657.762 90.2599C653.492 90.2599 649.817 89.4199 646.737 87.7399C643.727 85.9899 641.417 83.3999 639.807 79.9699C638.197 76.4699 637.392 72.1649 637.392 67.0549V36.0799H649.992V65.7949C649.992 70.3449 650.937 73.8099 652.827 76.1899C654.787 78.4999 657.727 79.6549 661.647 79.6549C664.167 79.6549 666.407 79.0599 668.367 77.8699C670.397 76.6799 671.972 74.9649 673.092 72.7249C674.282 70.4149 674.877 67.6149 674.877 64.3249V36.0799H687.477V88.9999H676.347L675.402 80.1799C673.792 83.2599 671.447 85.7099 668.367 87.5299C665.357 89.3499 661.822 90.2599 657.762 90.2599ZM722.601 90.2599C717.911 90.2599 713.816 89.5249 710.316 88.0549C706.886 86.5149 704.156 84.4149 702.126 81.7549C700.166 79.0249 699.011 75.9099 698.661 72.4099H711.261C711.611 73.8799 712.241 75.2449 713.151 76.5049C714.061 77.6949 715.286 78.6399 716.826 79.3399C718.436 80.0399 720.326 80.3899 722.496 80.3899C724.596 80.3899 726.311 80.1099 727.641 79.5499C728.971 78.9199 729.951 78.1149 730.581 77.1349C731.211 76.1549 731.526 75.1049 731.526 73.9849C731.526 72.3049 731.071 71.0099 730.161 70.0999C729.251 69.1899 727.921 68.4899 726.171 67.9999C724.491 67.4399 722.461 66.9149 720.081 66.4249C717.561 65.9349 715.111 65.3399 712.731 64.6399C710.421 63.8699 708.321 62.9249 706.431 61.8049C704.611 60.6849 703.141 59.2499 702.021 57.4999C700.971 55.7499 700.446 53.6149 700.446 51.0949C700.446 48.0149 701.251 45.2499 702.861 42.7999C704.541 40.3499 706.921 38.4249 710.001 37.0249C713.151 35.5549 716.896 34.8199 721.236 34.8199C727.396 34.8199 732.296 36.2549 735.936 39.1249C739.646 41.9249 741.816 45.8799 742.446 50.9899H730.476C730.126 49.0299 729.146 47.5249 727.536 46.4749C725.926 45.3549 723.791 44.7949 721.131 44.7949C718.401 44.7949 716.301 45.3199 714.831 46.3699C713.431 47.3499 712.731 48.6799 712.731 50.3599C712.731 51.4099 713.151 52.3899 713.991 53.2999C714.901 54.1399 716.196 54.8749 717.876 55.5049C719.556 56.0649 721.621 56.6249 724.071 57.1849C727.991 57.9549 731.456 58.8649 734.466 59.9149C737.476 60.9649 739.856 62.5049 741.606 64.5349C743.356 66.5649 744.231 69.4349 744.231 73.1449C744.301 76.5049 743.426 79.4799 741.606 82.0699C739.856 84.6599 737.371 86.6899 734.151 88.1599C730.931 89.5599 727.081 90.2599 722.601 90.2599Z" fill="white"/>
<path d="M131.184 94.9869C104.429 107.33 78.223 110.467 53.666 100.962C80.705 124.524 116.669 124.622 138.699 113.225C169.734 97.1709 198.57 77.3789 209.049 78.7849C211.261 79.0809 189.15 68.2449 131.184 94.9869Z" fill="#4D8AE3" stroke="#4D8AE3" stroke-width="0.1"/>
<path d="M130.244 54.5989C69.9989 75.8579 47.0298 71.4139 28.0898 67.2559C43.5798 84.9179 83.5929 96.6809 146.96 71.5729C183.026 57.2819 235.259 61.1909 235.259 61.1909C235.259 61.1909 199.133 30.2899 130.244 54.5989Z" fill="#4D8AE3" stroke="#4D8AE3"/>
<path d="M147.061 0.520968C108.517 2.02297 60.6214 37.102 0.775391 29.976C14.1654 54.376 76.1124 49.09 100.653 40.918C219.069 1.48797 241.389 57.774 240.267 49.918C239.145 42.062 217.879 -2.23803 147.061 0.520968Z" fill="#4D8AE3" stroke="#4D8AE3" stroke-width="0.1"/>
</g>
</g>
<defs>
<clipPath id="clip0_11234_2850">
<rect width="768" height="174" fill="white"/>
</clipPath>
</defs>
</svg>
