<svg width="32" height="32" viewBox="0 0 240 174" fill="none" xmlns="http://www.w3.org/2000/svg">
    <g clip-path="url(#clip0_favicon)">
        <path d="M131.184 94.9869C104.429 107.33 78.223 110.467 53.666 100.962C80.705 124.524 116.669 124.622 138.699 113.225C169.734 97.1709 198.57 77.3789 209.049 78.7849C211.261 79.0809 189.15 68.2449 131.184 94.9869Z" fill="#4D8AE3"/>
        <path d="M130.244 54.5989C69.9989 75.8579 47.0298 71.4139 28.0898 67.2559C43.5798 84.9179 83.5929 96.6809 146.96 71.5729C183.026 57.2819 235.259 61.1909 235.259 61.1909C235.259 61.1909 199.133 30.2899 130.244 54.5989Z" fill="#4D8AE3"/>
        <path d="M147.061 0.520968C108.517 2.02297 60.6214 37.102 0.775391 29.976C14.1654 54.376 76.1124 49.09 100.653 40.918C219.069 1.48797 241.389 57.774 240.267 49.918C239.145 42.062 217.879 -2.23803 147.061 0.520968Z" fill="#4D8AE3"/>
    </g>
    <defs>
        <clipPath id="clip0_favicon">
            <rect width="240" height="174" fill="white"/>
        </clipPath>
    </defs>
</svg>
